<svg id="visual" viewBox="0 0 900 600" width="900" height="600" xmlns="http://www.w3.org/2000/svg" xmlns:xlink="http://www.w3.org/1999/xlink" version="1.1"><rect x="0" y="0" width="900" height="600" fill="#d8dffa"></rect><path d="M0 378L21.5 376.2C43 374.3 86 370.7 128.8 352.7C171.7 334.7 214.3 302.3 257.2 285.5C300 268.7 343 267.3 385.8 274.5C428.7 281.7 471.3 297.3 514.2 295.8C557 294.3 600 275.7 642.8 281.3C685.7 287 728.3 317 771.2 324.3C814 331.7 857 316.3 878.5 308.7L900 301L900 601L878.5 601C857 601 814 601 771.2 601C728.3 601 685.7 601 642.8 601C600 601 557 601 514.2 601C471.3 601 428.7 601 385.8 601C343 601 300 601 257.2 601C214.3 601 171.7 601 128.8 601C86 601 43 601 21.5 601L0 601Z" fill="#715df2"></path><path d="M0 314L21.5 322.8C43 331.7 86 349.3 128.8 352C171.7 354.7 214.3 342.3 257.2 342.2C300 342 343 354 385.8 362.3C428.7 370.7 471.3 375.3 514.2 371C557 366.7 600 353.3 642.8 342C685.7 330.7 728.3 321.3 771.2 328.3C814 335.3 857 358.7 878.5 370.3L900 382L900 601L878.5 601C857 601 814 601 771.2 601C728.3 601 685.7 601 642.8 601C600 601 557 601 514.2 601C471.3 601 428.7 601 385.8 601C343 601 300 601 257.2 601C214.3 601 171.7 601 128.8 601C86 601 43 601 21.5 601L0 601Z" fill="#547af9"></path><path d="M0 419L21.5 419.8C43 420.7 86 422.3 128.8 420.8C171.7 419.3 214.3 414.7 257.2 407.7C300 400.7 343 391.3 385.8 399.2C428.7 407 471.3 432 514.2 431.7C557 431.3 600 405.7 642.8 393.2C685.7 380.7 728.3 381.3 771.2 385.3C814 389.3 857 396.7 878.5 400.3L900 404L900 601L878.5 601C857 601 814 601 771.2 601C728.3 601 685.7 601 642.8 601C600 601 557 601 514.2 601C471.3 601 428.7 601 385.8 601C343 601 300 601 257.2 601C214.3 601 171.7 601 128.8 601C86 601 43 601 21.5 601L0 601Z" fill="#4991f7"></path><path d="M0 479L21.5 481.7C43 484.3 86 489.7 128.8 486.7C171.7 483.7 214.3 472.3 257.2 464.5C300 456.7 343 452.3 385.8 450.8C428.7 449.3 471.3 450.7 514.2 451.8C557 453 600 454 642.8 458.8C685.7 463.7 728.3 472.3 771.2 476.8C814 481.3 857 481.7 878.5 481.8L900 482L900 601L878.5 601C857 601 814 601 771.2 601C728.3 601 685.7 601 642.8 601C600 601 557 601 514.2 601C471.3 601 428.7 601 385.8 601C343 601 300 601 257.2 601C214.3 601 171.7 601 128.8 601C86 601 43 601 21.5 601L0 601Z" fill="#59a4ef"></path><path d="M0 501L21.5 505.7C43 510.3 86 519.7 128.8 521.2C171.7 522.7 214.3 516.3 257.2 512.8C300 509.3 343 508.7 385.8 509.5C428.7 510.3 471.3 512.7 514.2 519.5C557 526.3 600 537.7 642.8 540C685.7 542.3 728.3 535.7 771.2 537.8C814 540 857 551 878.5 556.5L900 562L900 601L878.5 601C857 601 814 601 771.2 601C728.3 601 685.7 601 642.8 601C600 601 557 601 514.2 601C471.3 601 428.7 601 385.8 601C343 601 300 601 257.2 601C214.3 601 171.7 601 128.8 601C86 601 43 601 21.5 601L0 601Z" fill="#79b4e4"></path></svg>