<svg id="visual" viewBox="0 0 900 300" width="900" height="300" xmlns="http://www.w3.org/2000/svg" xmlns:xlink="http://www.w3.org/1999/xlink" version="1.1"><path d="M0 40L6.5 39.5C13 39 26 38 39 35.5C52 33 65 29 78 29C91 29 104 33 117.2 34.5C130.3 36 143.7 35 156.8 34.5C170 34 183 34 196 32.5C209 31 222 28 235 29C248 30 261 35 274 35C287 35 300 30 313 30C326 30 339 35 352 37C365 39 378 38 391 38C404 38 417 39 430.2 37.5C443.3 36 456.7 32 469.8 30.5C483 29 496 30 509 30.5C522 31 535 31 548 29.5C561 28 574 25 587 26.5C600 28 613 34 626 35.5C639 37 652 34 665 33.5C678 33 691 35 704 35C717 35 730 33 743.2 32.5C756.3 32 769.7 33 782.8 34C796 35 809 36 822 35.5C835 35 848 33 861 31C874 29 887 27 893.5 26L900 25L900 0L893.5 0C887 0 874 0 861 0C848 0 835 0 822 0C809 0 796 0 782.8 0C769.7 0 756.3 0 743.2 0C730 0 717 0 704 0C691 0 678 0 665 0C652 0 639 0 626 0C613 0 600 0 587 0C574 0 561 0 548 0C535 0 522 0 509 0C496 0 483 0 469.8 0C456.7 0 443.3 0 430.2 0C417 0 404 0 391 0C378 0 365 0 352 0C339 0 326 0 313 0C300 0 287 0 274 0C261 0 248 0 235 0C222 0 209 0 196 0C183 0 170 0 156.8 0C143.7 0 130.3 0 117.2 0C104 0 91 0 78 0C65 0 52 0 39 0C26 0 13 0 6.5 0L0 0Z" fill="#513eb8"></path><path d="M0 73L6.5 77C13 81 26 89 39 89C52 89 65 81 78 79C91 77 104 81 117.2 84C130.3 87 143.7 89 156.8 88C170 87 183 83 196 79.5C209 76 222 73 235 73C248 73 261 76 274 77C287 78 300 77 313 80C326 83 339 90 352 89C365 88 378 79 391 79C404 79 417 88 430.2 87C443.3 86 456.7 75 469.8 69.5C483 64 496 64 509 67.5C522 71 535 78 548 79C561 80 574 75 587 78C600 81 613 92 626 91C639 90 652 77 665 74.5C678 72 691 80 704 83.5C717 87 730 86 743.2 85C756.3 84 769.7 83 782.8 81.5C796 80 809 78 822 79.5C835 81 848 86 861 83.5C874 81 887 71 893.5 66L900 61L900 23L893.5 24C887 25 874 27 861 29C848 31 835 33 822 33.5C809 34 796 33 782.8 32C769.7 31 756.3 30 743.2 30.5C730 31 717 33 704 33C691 33 678 31 665 31.5C652 32 639 35 626 33.5C613 32 600 26 587 24.5C574 23 561 26 548 27.5C535 29 522 29 509 28.5C496 28 483 27 469.8 28.5C456.7 30 443.3 34 430.2 35.5C417 37 404 36 391 36C378 36 365 37 352 35C339 33 326 28 313 28C300 28 287 33 274 33C261 33 248 28 235 27C222 26 209 29 196 30.5C183 32 170 32 156.8 32.5C143.7 33 130.3 34 117.2 32.5C104 31 91 27 78 27C65 27 52 31 39 33.5C26 36 13 37 6.5 37.5L0 38Z" fill="#5e4acf"></path><path d="M0 118L6.5 119C13 120 26 122 39 121C52 120 65 116 78 116C91 116 104 120 117.2 124C130.3 128 143.7 132 156.8 129C170 126 183 116 196 111.5C209 107 222 108 235 108C248 108 261 107 274 106.5C287 106 300 106 313 111.5C326 117 339 128 352 127.5C365 127 378 115 391 115C404 115 417 127 430.2 128C443.3 129 456.7 119 469.8 113C483 107 496 105 509 106C522 107 535 111 548 112.5C561 114 574 113 587 115C600 117 613 122 626 120.5C639 119 652 111 665 111.5C678 112 691 121 704 123C717 125 730 120 743.2 117C756.3 114 769.7 113 782.8 111C796 109 809 106 822 107.5C835 109 848 115 861 114.5C874 114 887 107 893.5 103.5L900 100L900 59L893.5 64C887 69 874 79 861 81.5C848 84 835 79 822 77.5C809 76 796 78 782.8 79.5C769.7 81 756.3 82 743.2 83C730 84 717 85 704 81.5C691 78 678 70 665 72.5C652 75 639 88 626 89C613 90 600 79 587 76C574 73 561 78 548 77C535 76 522 69 509 65.5C496 62 483 62 469.8 67.5C456.7 73 443.3 84 430.2 85C417 86 404 77 391 77C378 77 365 86 352 87C339 88 326 81 313 78C300 75 287 76 274 75C261 74 248 71 235 71C222 71 209 74 196 77.5C183 81 170 85 156.8 86C143.7 87 130.3 85 117.2 82C104 79 91 75 78 77C65 79 52 87 39 87C26 87 13 79 6.5 75L0 71Z" fill="#6b57e6"></path><path d="M0 172L6.5 176.5C13 181 26 190 39 195.5C52 201 65 203 78 199.5C91 196 104 187 117.2 186C130.3 185 143.7 192 156.8 189.5C170 187 183 175 196 174.5C209 174 222 185 235 189.5C248 194 261 192 274 189.5C287 187 300 184 313 184C326 184 339 187 352 191C365 195 378 200 391 199C404 198 417 191 430.2 193C443.3 195 456.7 206 469.8 205.5C483 205 496 193 509 187C522 181 535 181 548 179.5C561 178 574 175 587 179C600 183 613 194 626 198C639 202 652 199 665 198.5C678 198 691 200 704 198C717 196 730 190 743.2 185C756.3 180 769.7 176 782.8 173C796 170 809 168 822 168C835 168 848 170 861 175C874 180 887 188 893.5 192L900 196L900 98L893.5 101.5C887 105 874 112 861 112.5C848 113 835 107 822 105.5C809 104 796 107 782.8 109C769.7 111 756.3 112 743.2 115C730 118 717 123 704 121C691 119 678 110 665 109.5C652 109 639 117 626 118.5C613 120 600 115 587 113C574 111 561 112 548 110.5C535 109 522 105 509 104C496 103 483 105 469.8 111C456.7 117 443.3 127 430.2 126C417 125 404 113 391 113C378 113 365 125 352 125.5C339 126 326 115 313 109.5C300 104 287 104 274 104.5C261 105 248 106 235 106C222 106 209 105 196 109.5C183 114 170 124 156.8 127C143.7 130 130.3 126 117.2 122C104 118 91 114 78 114C65 114 52 118 39 119C26 120 13 118 6.5 117L0 116Z" fill="#7a67f4"></path><path d="M0 268L6.5 270C13 272 26 276 39 278C52 280 65 280 78 278.5C91 277 104 274 117.2 274C130.3 274 143.7 277 156.8 277.5C170 278 183 276 196 276C209 276 222 278 235 277.5C248 277 261 274 274 273.5C287 273 300 275 313 276.5C326 278 339 279 352 277C365 275 378 270 391 268.5C404 267 417 269 430.2 271.5C443.3 274 456.7 277 469.8 276C483 275 496 270 509 268.5C522 267 535 269 548 269.5C561 270 574 269 587 268.5C600 268 613 268 626 268.5C639 269 652 270 665 270C678 270 691 269 704 268.5C717 268 730 268 743.2 267.5C756.3 267 769.7 266 782.8 267.5C796 269 809 273 822 274C835 275 848 273 861 272C874 271 887 271 893.5 271L900 271L900 194L893.5 190C887 186 874 178 861 173C848 168 835 166 822 166C809 166 796 168 782.8 171C769.7 174 756.3 178 743.2 183C730 188 717 194 704 196C691 198 678 196 665 196.5C652 197 639 200 626 196C613 192 600 181 587 177C574 173 561 176 548 177.5C535 179 522 179 509 185C496 191 483 203 469.8 203.5C456.7 204 443.3 193 430.2 191C417 189 404 196 391 197C378 198 365 193 352 189C339 185 326 182 313 182C300 182 287 185 274 187.5C261 190 248 192 235 187.5C222 183 209 172 196 172.5C183 173 170 185 156.8 187.5C143.7 190 130.3 183 117.2 184C104 185 91 194 78 197.5C65 201 52 199 39 193.5C26 188 13 179 6.5 174.5L0 170Z" fill="#8c7cf7"></path><path d="M0 301L6.5 301C13 301 26 301 39 301C52 301 65 301 78 301C91 301 104 301 117.2 301C130.3 301 143.7 301 156.8 301C170 301 183 301 196 301C209 301 222 301 235 301C248 301 261 301 274 301C287 301 300 301 313 301C326 301 339 301 352 301C365 301 378 301 391 301C404 301 417 301 430.2 301C443.3 301 456.7 301 469.8 301C483 301 496 301 509 301C522 301 535 301 548 301C561 301 574 301 587 301C600 301 613 301 626 301C639 301 652 301 665 301C678 301 691 301 704 301C717 301 730 301 743.2 301C756.3 301 769.7 301 782.8 301C796 301 809 301 822 301C835 301 848 301 861 301C874 301 887 301 893.5 301L900 301L900 269L893.5 269C887 269 874 269 861 270C848 271 835 273 822 272C809 271 796 267 782.8 265.5C769.7 264 756.3 265 743.2 265.5C730 266 717 266 704 266.5C691 267 678 268 665 268C652 268 639 267 626 266.5C613 266 600 266 587 266.5C574 267 561 268 548 267.5C535 267 522 265 509 266.5C496 268 483 273 469.8 274C456.7 275 443.3 272 430.2 269.5C417 267 404 265 391 266.5C378 268 365 273 352 275C339 277 326 276 313 274.5C300 273 287 271 274 271.5C261 272 248 275 235 275.5C222 276 209 274 196 274C183 274 170 276 156.8 275.5C143.7 275 130.3 272 117.2 272C104 272 91 275 78 276.5C65 278 52 278 39 276C26 274 13 270 6.5 268L0 266Z" fill="#9e90fa"></path></svg>